<svg fill="none" height="150" viewBox="0 0 150 150" width="150" xmlns="http://www.w3.org/2000/svg" xmlns:xlink="http://www.w3.org/1999/xlink"><linearGradient id="a" gradientUnits="userSpaceOnUse" x1="0" x2="150" y1="0" y2="150"><stop offset=".104167" stop-color="#1ca0e1"/><stop offset=".901042" stop-color="#ea4566"/></linearGradient><path d="m68.5094 2.25529c3.8269-3.007052 9.1543-3.007052 12.9812 0l19.6574 15.44641c1.167.9172 2.508 1.577 3.938 1.9378l24.073 6.0762c4.686 1.1829 8.008 5.4397 8.093 10.3723l.44 25.3375c.026 1.5046.357 2.9872.972 4.3543l10.361 23.0233c2.017 4.4821.832 9.7902-2.888 12.9339l-19.11 16.149c-1.134.959-2.062 2.148-2.724 3.492l-11.154 22.633c-2.171 4.407-6.971 6.769-11.695 5.757l-24.2689-5.201c-1.4411-.308-2.9291-.308-4.3702 0l-24.2687 5.201c-4.7245 1.012-9.5243-1.35-11.6956-5.757l-11.1531-22.633c-.6623-1.344-1.5901-2.533-2.7248-3.492l-19.10938-16.149c-3.720133-3.1437-4.9056-8.4518-2.888578-12.9339l10.360958-23.0233c.6152-1.3671.9463-2.8497.9724-4.3543l.4397-25.3375c.0856-4.9326 3.4072-9.1894 8.0936-10.3723l24.073-6.0762c1.4294-.3608 2.7701-1.0206 3.9374-1.9378z" fill="url(#a)"/><path d="m79.3281 5.00732 19.6576 15.44648c1.5503 1.2179 3.3353 2.0977 5.2433 2.5793l24.073 6.0762c3.11.7849 5.392 3.6408 5.451 7.0394l.439 25.3376c.035 1.9773.47 3.9282 1.281 5.7298l10.361 23.0233c1.384 3.0759.555 6.7018-1.956 8.8244l-19.11 16.1492c-1.506 1.272-2.732 2.846-3.605 4.618l-11.153 22.633c-1.479 3.002-4.704 4.55-7.823 3.881l-24.2686-5.2c-1.9245-.412-3.9124-.412-5.8368 0l-24.2687 5.2c-3.1194.669-6.3435-.879-7.8228-3.881l-11.1531-22.633c-.8733-1.772-2.0994-3.346-3.6052-4.618l-19.10935-16.1492c-2.5118-2.1226-3.3402-5.7485-1.95601-8.8244l10.36096-23.0233c.8108-1.8016 1.2459-3.7525 1.2802-5.7298l.4396-25.3376c.059-3.3986 2.3411-6.2545 5.4508-7.0394l24.073-6.0762c1.9082-.4816 3.6932-1.3614 5.2433-2.5793l19.6576-15.44648c2.5577-2.00976 6.0985-2.00976 8.6562 0z" opacity=".2" stroke="#000" stroke-width="7"/><path d="m83.97 40.4423-6.0277 6.0277 6.0277 6.0276 6.0276-6.0276zm-18.48 3.7177c-.425 0-.77.3449-.77.77v7.7c0 .425.345.77.77.77h1.54c3.5528 0 3.85 2.9814 3.85 5.775 0 1.4083-.1653 3.0901-.4512 4.8786-1.9645-.894-3.7834-1.4019-5.3118-1.4136h-.0421c-1.8926 0-3.0205.7271-3.6334 1.3385-.4127.4127-.7033.8974-.9204 1.4257l-.0211-.0091-16.9099 42.9069 44.3111-15.1748c.0339-.0124.0684-.0238.1023-.0361l.018-.006c.5775-.2172 1.095-.5385 1.54-.9836 1.6115-1.6115 1.7428-4.3677.4241-7.8233 1.0046-.0492 2.0757-.0782 3.2244-.0782 4.7185 0 8.47 1.1088 8.47 2.695v1.155c0 .425.345.77.77.77h6.16c.208 0 .407-.0838.55-.2316.147-.1509.226-.3531.22-.5595 0-.0015-.048-1.678-.045-1.949v-.0031c.017-2.0358-.803-3.9469-2.361-5.5193-2.446-2.4655-6.653-4.0575-10.7171-4.0575-4.0708 0-7.2014.9092-9.4927 1.925-1.0147-1.4665-2.1792-2.9318-3.48-4.3794 2.2014-.6734 4.411-1.1611 5.4562-1.3896.3988-.0862.6732-.149.8903-.2106 2.5872-.7253 7.4052-2.7066 7.4052-7.342 0-.8901-.3958-1.7688-.8301-2.4664h1.1309c3.1463 0 5.8803-1.6842 5.8803-4.8366v-2.5536c0-.191.07-1.8589 2.457-1.8589l1.396-.012c.425 0 .77-.3449.77-.77v-6.1329c0-.4251-.345-.77-.77-.77l-2.617-.003h-.009c-3.379 0-5.888 1.1578-7.6698 3.5402-1.1704 1.5646-1.5564 4.2429-1.6873 5.6998h-.8964c-4.5229 0-6.3645 3.1678-6.3645 7.7v2.6589c-2.4832.7591-5.9262 2.1281-8.8129 4.5057-1.6351-1.4281-3.2871-2.6636-4.9057-3.7056 1.5397-2.865 2.9326-6.7248 2.9326-11.3515 0-5.1005-3.1681-10.5875-10.1243-10.5875zm-13.86 2.4423-6.0277 6.0277 6.0277 6.0276 6.0276-6.0276zm53.9 17.5777-3.85 3.85 3.85 3.85 3.847-3.85zm-60.06 1.54-3.85 3.85 3.85 3.85 3.847-3.85zm19.5989 0h.0241c1.1363.0083 2.784.5025 4.7192 1.4618-.2739 1.1702-.5831 2.351-.9595 3.5281l-.0541.1715c-.1032.3326.0307.6935.3248.8783.1248.0816.2674.1203.4091.1203.1894 0 .3785-.0705.5264-.2076.0273-.0254 1.1203-1.0865 2.4303-2.9566 1.3711.8833 2.8257 1.9602 4.3282 3.2604-.3651.4405-.7241.891-1.0407 1.3836l-3.2364 5.0351c-.1987.3095-.149.7144.1143.9685.1494.1417.3414.2166.5354.2166.1525 0 .3037-.046.4361-.1384l4.8516-3.3567c.456-.3155 1.0445-.6079 1.6754-.8903 1.4639 1.5443 2.7781 3.1194 3.8861 4.6862-1.062.7004-1.6712 1.2626-1.7355 1.3264l-3.4951 3.456c-.2587.2556-.3024.656-.1053.9625.1956.3064.5877.4317.9234.3008.0322-.0122 2.4582-.8951 7.1375-1.3927 1.1228 2.527 1.3765 4.6362.6227 5.39-1.5385 1.5354-8.4098-.8496-15.6647-8.103-7.2565-7.2549-9.6491-14.1247-8.1091-15.6647.2926-.2895.7828-.4361 1.4558-.4361zm29.6811 30.1623-6.0277 6.0277 6.0277 6.028 6.028-6.028z" fill="#fff"/></svg>